<svg xmlns="http://www.w3.org/2000/svg" version="1.1" style="font-family:Lato, &#x27;Helvetica Neue&#x27;, Helvetica, Arial, sans-serif;font-size:18px;background-color:white;text-rendering:optimizeLegibility;-webkit-font-smoothing:antialiased" width="850" height="600"><g class="HeaderView"><g transform="translate(774, 15) scale(0.29)"><svg width="210" height="120" viewBox="0 0 210 120" fill="none" xmlns="http://www.w3.org/2000/svg"><defs>
        <clipPath id="clip0">
            <rect width="210" height="120" fill="white"/>
        </clipPath>
    </defs>
</svg></g><a href="https://ourworldindata.org/grapher/energy-intensity-of-economies" target="_blank"><text font-size="25.20" x="15.0" y="35.2" fill="#555"><tspan x="15" y="35.160000000000004">Energy intensity of economies</tspan></text></a><text font-size="14.40" x="15.0" y="53.7" fill="#666"><tspan x="15" y="53.72">Energy intensity level of primary energy is the ratio between energy supply and gross domestic product measured</tspan><tspan x="15" y="69.56">at purchasing power parity. Energy intensity is an indication of how much energy is used to produce one unit of</tspan><tspan x="15" y="85.4">economic output. Lower ratio indicates that less energy is used to produce one unit of output.</tspan></text></g><g class="LineChart"><defs><clipPath id="boundsClip-21"><rect x="83.224" y="0" width="830" height="901.8"></rect></clipPath></defs><g class="AxisBoxView"><g class="HorizontalAxis"><text x="93.2" y="556.5" fill="#666" text-anchor="middle" font-size="16.2">1990</text><text x="209" y="556.5" fill="#666" text-anchor="middle" font-size="16.2">1995</text><text x="324.8" y="556.5" fill="#666" text-anchor="middle" font-size="16.2">2000</text><text x="440.6" y="556.5" fill="#666" text-anchor="middle" font-size="16.2">2005</text><text x="556.4" y="556.5" fill="#666" text-anchor="middle" font-size="16.2">2010</text><text x="672.2" y="556.5" fill="#666" text-anchor="middle" font-size="16.2">2015</text></g><g class="VerticalAxis"><text x="88.22" y="535.3" fill="#666" dominant-baseline="middle" text-anchor="end" font-size="16.2">0 kWh/$</text><text x="88.22" y="474.7" fill="#666" dominant-baseline="middle" text-anchor="end" font-size="16.2">0.5 kWh/$</text><text x="88.22" y="414.2" fill="#666" dominant-baseline="middle" text-anchor="end" font-size="16.2">1 kWh/$</text><text x="88.22" y="353.6" fill="#666" dominant-baseline="middle" text-anchor="end" font-size="16.2">1.5 kWh/$</text><text x="88.22" y="293" fill="#666" dominant-baseline="middle" text-anchor="end" font-size="16.2">2 kWh/$</text><text x="88.22" y="232.4" fill="#666" dominant-baseline="middle" text-anchor="end" font-size="16.2">2.5 kWh/$</text><text x="88.22" y="171.9" fill="#666" dominant-baseline="middle" text-anchor="end" font-size="16.2">3 kWh/$</text><text x="88.22" y="111.3" fill="#666" dominant-baseline="middle" text-anchor="end" font-size="16.2">3.5 kWh/$</text></g><g class="AxisGridLines"><line x1="93.22" y1="535.3" x2="672.15" y2="535.3" stroke="#ccc"></line><line x1="93.22" y1="474.7" x2="672.15" y2="474.7" stroke="#ddd" stroke-dasharray="3,2"></line><line x1="93.22" y1="414.2" x2="672.15" y2="414.2" stroke="#ddd" stroke-dasharray="3,2"></line><line x1="93.22" y1="353.6" x2="672.15" y2="353.6" stroke="#ddd" stroke-dasharray="3,2"></line><line x1="93.22" y1="293" x2="672.15" y2="293" stroke="#ddd" stroke-dasharray="3,2"></line><line x1="93.22" y1="232.4" x2="672.15" y2="232.4" stroke="#ddd" stroke-dasharray="3,2"></line><line x1="93.22" y1="171.9" x2="672.15" y2="171.9" stroke="#ddd" stroke-dasharray="3,2"></line><line x1="93.22" y1="111.3" x2="672.15" y2="111.3" stroke="#ddd" stroke-dasharray="3,2"></line></g></g><g clip-path="url(#boundsClip-21)"><g class="HeightedLegend" style="cursor:pointer"><g class="legendMark"><g class="indicator"><path d="M676.155,237.2 H689.655 V237.2 H703.155" stroke="#999" stroke-width="0.5" fill="none"></path></g><rect x="672.155" y="230.45" width="107.22500000000001" height="13.5" fill="#fff" opacity="0"></rect><text font-size="13.50" x="707.2" y="241.3" fill="#2a939b"><tspan x="707.155" y="241.25">Low income</tspan></text></g><g class="legendMark"><g class="indicator"><path d="M676.155,333.3 H681.555 V330.2 H703.155" stroke="#999" stroke-width="0.5" fill="none"></path></g><rect x="672.155" y="323.45" width="162.84500000000003" height="13.5" fill="#fff" opacity="0"></rect><text font-size="13.50" x="707.2" y="334.3" fill="#a652ba"><tspan x="707.155" y="334.25">Upper middle income</tspan></text></g><g class="legendMark"><g class="indicator"><path d="M676.155,348.4 H686.9549999999999 V345.7 H703.155" stroke="#999" stroke-width="0.5" fill="none"></path></g><rect x="672.155" y="338.95" width="122.21000000000001" height="13.5" fill="#fff" opacity="0"></rect><text font-size="13.50" x="707.2" y="349.8" fill="#f6a324"><tspan x="707.155" y="349.75">Middle income</tspan></text></g><g class="legendMark"><g class="indicator"><path d="M676.155,362.6 H692.3549999999999 V361.2 H703.155" stroke="#999" stroke-width="0.5" fill="none"></path></g><rect x="672.155" y="354.45" width="70.235" height="13.5" fill="#fff" opacity="0"></rect><text font-size="13.50" x="707.2" y="365.3" fill="#34983f"><tspan x="707.155" y="365.25">World</tspan></text></g><g class="legendMark"><g class="indicator"><path d="M676.155,380.7 H697.755 V376.7 H703.155" stroke="#999" stroke-width="0.5" fill="none"></path></g><rect x="672.155" y="369.95" width="110.19500000000001" height="13.5" fill="#fff" opacity="0"></rect><text font-size="13.50" x="707.2" y="380.8" fill="#ca2628"><tspan x="707.155" y="380.75">High income</tspan></text></g><g class="legendMark"><g class="indicator"><path d="M676.155,381 H697.755 V392.2 H703.155" stroke="#999" stroke-width="0.5" fill="none"></path></g><rect x="672.155" y="385.45" width="162.84500000000003" height="13.5" fill="#fff" opacity="0"></rect><text font-size="13.50" x="707.2" y="396.3" fill="#3360a9"><tspan x="707.155" y="396.25">Lower middle income</tspan></text></g></g><g class="Lines"><rect x="93" y="106" width="579" height="430" fill="rgba(255,255,255,0)" opacity="0"></rect><g class="key-World_0"><path stroke="#34983f" stroke-linecap="round" d="M93 280L116 281L140 285L163 287L186 292L209 294L232 297L255 304L279 308L302 312L325 317L348 320L371 321L394 321L417 323L441 327L464 332L487 337L510 340L533 341L556 340L580 345L603 347L626 351L649 358L672 363" fill="none" stroke-width="1.5"></path><g fill="#34983f"><circle cx="93" cy="280" r="2"></circle><circle cx="116" cy="281" r="2"></circle><circle cx="140" cy="285" r="2"></circle><circle cx="163" cy="287" r="2"></circle><circle cx="186" cy="292" r="2"></circle><circle cx="209" cy="294" r="2"></circle><circle cx="232" cy="297" r="2"></circle><circle cx="255" cy="304" r="2"></circle><circle cx="279" cy="308" r="2"></circle><circle cx="302" cy="312" r="2"></circle><circle cx="325" cy="317" r="2"></circle><circle cx="348" cy="320" r="2"></circle><circle cx="371" cy="321" r="2"></circle><circle cx="394" cy="321" r="2"></circle><circle cx="417" cy="323" r="2"></circle><circle cx="441" cy="327" r="2"></circle><circle cx="464" cy="332" r="2"></circle><circle cx="487" cy="337" r="2"></circle><circle cx="510" cy="340" r="2"></circle><circle cx="533" cy="341" r="2"></circle><circle cx="556" cy="340" r="2"></circle><circle cx="580" cy="345" r="2"></circle><circle cx="603" cy="347" r="2"></circle><circle cx="626" cy="351" r="2"></circle><circle cx="649" cy="358" r="2"></circle><circle cx="672" cy="363" r="2"></circle></g></g><g class="key-Low-income_0"><path stroke="#2a939b" stroke-linecap="round" d="M93 130L116 123L140 108L163 108L186 109L209 106L232 124L255 134L279 136L302 136L325 142L348 146L371 163L394 166L417 173L441 179L464 185L487 196L510 204L533 208L556 218L580 218L603 228L626 232L649 243L672 237" fill="none" stroke-width="1.5"></path><g fill="#2a939b"><circle cx="93" cy="130" r="2"></circle><circle cx="116" cy="123" r="2"></circle><circle cx="140" cy="108" r="2"></circle><circle cx="163" cy="108" r="2"></circle><circle cx="186" cy="109" r="2"></circle><circle cx="209" cy="106" r="2"></circle><circle cx="232" cy="124" r="2"></circle><circle cx="255" cy="134" r="2"></circle><circle cx="279" cy="136" r="2"></circle><circle cx="302" cy="136" r="2"></circle><circle cx="325" cy="142" r="2"></circle><circle cx="348" cy="146" r="2"></circle><circle cx="371" cy="163" r="2"></circle><circle cx="394" cy="166" r="2"></circle><circle cx="417" cy="173" r="2"></circle><circle cx="441" cy="179" r="2"></circle><circle cx="464" cy="185" r="2"></circle><circle cx="487" cy="196" r="2"></circle><circle cx="510" cy="204" r="2"></circle><circle cx="533" cy="208" r="2"></circle><circle cx="556" cy="218" r="2"></circle><circle cx="580" cy="218" r="2"></circle><circle cx="603" cy="228" r="2"></circle><circle cx="626" cy="232" r="2"></circle><circle cx="649" cy="243" r="2"></circle><circle cx="672" cy="237" r="2"></circle></g></g><g class="key-High-income_0"><path stroke="#ca2628" stroke-linecap="round" d="M93 315L116 315L140 317L163 316L186 319L209 320L232 320L255 326L279 330L302 333L325 337L348 339L371 341L394 343L417 345L441 350L464 355L487 359L510 361L533 363L556 362L580 369L603 371L626 373L649 377L672 381" fill="none" stroke-width="1.5"></path><g fill="#ca2628"><circle cx="93" cy="315" r="2"></circle><circle cx="116" cy="315" r="2"></circle><circle cx="140" cy="317" r="2"></circle><circle cx="163" cy="316" r="2"></circle><circle cx="186" cy="319" r="2"></circle><circle cx="209" cy="320" r="2"></circle><circle cx="232" cy="320" r="2"></circle><circle cx="255" cy="326" r="2"></circle><circle cx="279" cy="330" r="2"></circle><circle cx="302" cy="333" r="2"></circle><circle cx="325" cy="337" r="2"></circle><circle cx="348" cy="339" r="2"></circle><circle cx="371" cy="341" r="2"></circle><circle cx="394" cy="343" r="2"></circle><circle cx="417" cy="345" r="2"></circle><circle cx="441" cy="350" r="2"></circle><circle cx="464" cy="355" r="2"></circle><circle cx="487" cy="359" r="2"></circle><circle cx="510" cy="361" r="2"></circle><circle cx="533" cy="363" r="2"></circle><circle cx="556" cy="362" r="2"></circle><circle cx="580" cy="369" r="2"></circle><circle cx="603" cy="371" r="2"></circle><circle cx="626" cy="373" r="2"></circle><circle cx="649" cy="377" r="2"></circle><circle cx="672" cy="381" r="2"></circle></g></g><g class="key-Middle-income_0"><path stroke="#f6a324" stroke-linecap="round" d="M93 225L116 227L140 234L163 240L186 250L209 252L232 261L255 270L279 275L302 280L325 288L348 291L371 294L394 292L417 295L441 299L464 305L487 313L510 318L533 319L556 320L580 323L603 326L626 332L649 342L672 348" fill="none" stroke-width="1.5"></path><g fill="#f6a324"><circle cx="93" cy="225" r="2"></circle><circle cx="116" cy="227" r="2"></circle><circle cx="140" cy="234" r="2"></circle><circle cx="163" cy="240" r="2"></circle><circle cx="186" cy="250" r="2"></circle><circle cx="209" cy="252" r="2"></circle><circle cx="232" cy="261" r="2"></circle><circle cx="255" cy="270" r="2"></circle><circle cx="279" cy="275" r="2"></circle><circle cx="302" cy="280" r="2"></circle><circle cx="325" cy="288" r="2"></circle><circle cx="348" cy="291" r="2"></circle><circle cx="371" cy="294" r="2"></circle><circle cx="394" cy="292" r="2"></circle><circle cx="417" cy="295" r="2"></circle><circle cx="441" cy="299" r="2"></circle><circle cx="464" cy="305" r="2"></circle><circle cx="487" cy="313" r="2"></circle><circle cx="510" cy="318" r="2"></circle><circle cx="533" cy="319" r="2"></circle><circle cx="556" cy="320" r="2"></circle><circle cx="580" cy="323" r="2"></circle><circle cx="603" cy="326" r="2"></circle><circle cx="626" cy="332" r="2"></circle><circle cx="649" cy="342" r="2"></circle><circle cx="672" cy="348" r="2"></circle></g></g><g class="key-Upper-middle-income_0"><path stroke="#a652ba" stroke-linecap="round" d="M93 212L116 216L140 222L163 228L186 236L209 238L232 246L255 258L279 266L302 271L325 281L348 284L371 287L394 281L417 281L441 283L464 288L487 297L510 303L533 303L556 303L580 305L603 309L626 314L649 327L672 333" fill="none" stroke-width="1.5"></path><g fill="#a652ba"><circle cx="93" cy="212" r="2"></circle><circle cx="116" cy="216" r="2"></circle><circle cx="140" cy="222" r="2"></circle><circle cx="163" cy="228" r="2"></circle><circle cx="186" cy="236" r="2"></circle><circle cx="209" cy="238" r="2"></circle><circle cx="232" cy="246" r="2"></circle><circle cx="255" cy="258" r="2"></circle><circle cx="279" cy="266" r="2"></circle><circle cx="302" cy="271" r="2"></circle><circle cx="325" cy="281" r="2"></circle><circle cx="348" cy="284" r="2"></circle><circle cx="371" cy="287" r="2"></circle><circle cx="394" cy="281" r="2"></circle><circle cx="417" cy="281" r="2"></circle><circle cx="441" cy="283" r="2"></circle><circle cx="464" cy="288" r="2"></circle><circle cx="487" cy="297" r="2"></circle><circle cx="510" cy="303" r="2"></circle><circle cx="533" cy="303" r="2"></circle><circle cx="556" cy="303" r="2"></circle><circle cx="580" cy="305" r="2"></circle><circle cx="603" cy="309" r="2"></circle><circle cx="626" cy="314" r="2"></circle><circle cx="649" cy="327" r="2"></circle><circle cx="672" cy="333" r="2"></circle></g></g><g class="key-Lower-middle-income_0"><path stroke="#3360a9" stroke-linecap="round" d="M93 254L116 252L140 263L163 268L186 280L209 283L232 293L255 297L279 296L302 298L325 303L348 308L371 309L394 317L417 324L441 332L464 341L487 348L510 352L533 354L556 358L580 363L603 366L626 373L649 375L672 381" fill="none" stroke-width="1.5"></path><g fill="#3360a9"><circle cx="93" cy="254" r="2"></circle><circle cx="116" cy="252" r="2"></circle><circle cx="140" cy="263" r="2"></circle><circle cx="163" cy="268" r="2"></circle><circle cx="186" cy="280" r="2"></circle><circle cx="209" cy="283" r="2"></circle><circle cx="232" cy="293" r="2"></circle><circle cx="255" cy="297" r="2"></circle><circle cx="279" cy="296" r="2"></circle><circle cx="302" cy="298" r="2"></circle><circle cx="325" cy="303" r="2"></circle><circle cx="348" cy="308" r="2"></circle><circle cx="371" cy="309" r="2"></circle><circle cx="394" cy="317" r="2"></circle><circle cx="417" cy="324" r="2"></circle><circle cx="441" cy="332" r="2"></circle><circle cx="464" cy="341" r="2"></circle><circle cx="487" cy="348" r="2"></circle><circle cx="510" cy="352" r="2"></circle><circle cx="533" cy="354" r="2"></circle><circle cx="556" cy="358" r="2"></circle><circle cx="580" cy="363" r="2"></circle><circle cx="603" cy="366" r="2"></circle><circle cx="626" cy="373" r="2"></circle><circle cx="649" cy="375" r="2"></circle><circle cx="672" cy="381" r="2"></circle></g></g></g></g></g><g class="SourcesFooter" style="fill:#777"><g class="clickable" style="fill:#777"><text font-size="12.60" x="15.0" y="581.6"><tspan x="15" y="581.58">Source: World Bank, Sustainable Energy for All (SE4ALL)</tspan></text></g><text font-size="12.60" x="389.0" y="581.6"><tspan x="388.96" y="581.58"><a target='_blank' style='fill: #777;' href='https://ourworldindata.org/energy-production-and-changing-energy-sources/'>OurWorldInData.org/energy-production-and-changing-energy-sources/</a> • <a style="fill: #777;" class="cclogo" href="http://creativecommons.org/licenses/by/4.0/deed.en_US" target="_blank">CC BY</a></tspan></text></g></svg>